<svg width="275" height="54" viewBox="0 0 275 54" fill="none" xmlns="http://www.w3.org/2000/svg">
<path d="M0 0V13.3065C0 13.3065 16.931 21.8245 28.0033 27.4194H0.134409V54H19.0137L28.2385 27.5382C29.5948 28.2236 30.8593 28.8632 31.9893 29.4355C42.3388 34.6775 54.8388 27.285 54.57 15.3226C54.3012 3.36022 45.4302 -1.24408e-05 39.113 0H0Z" fill="#F4F4F5"/>
<path d="M74.5347 12.1832C76.777 12.1832 78.718 12.5569 80.3576 13.3043C82.0212 14.0518 83.2991 15.1127 84.1913 16.487C85.0834 17.8614 85.5294 19.4889 85.5294 21.3696C85.5294 23.2262 85.0834 24.8537 84.1913 26.2521C83.2991 27.6265 82.0212 28.6874 80.3576 29.4348C78.718 30.1582 76.777 30.5198 74.5347 30.5198H69.4351V37.5001H63.576V12.1832H74.5347ZM74.2092 25.7458C75.9693 25.7458 77.3075 25.3721 78.2237 24.6246C79.1399 23.8531 79.5981 22.768 79.5981 21.3696C79.5981 19.947 79.1399 18.862 78.2237 18.1146C77.3075 17.343 75.9693 16.9572 74.2092 16.9572H69.4351V25.7458H74.2092Z" fill="#F4F4F5"/>
<path d="M94.7034 20.6101C95.3786 19.6697 96.2827 18.9584 97.416 18.4762C98.5733 17.994 99.8994 17.7529 101.394 17.7529V22.9609C100.767 22.9127 100.346 22.8886 100.129 22.8886C98.513 22.8886 97.2472 23.3467 96.331 24.2629C95.4147 25.1551 94.9566 26.5053 94.9566 28.3137V37.5001H89.3146V18.0422H94.7034V20.6101Z" fill="#F4F4F5"/>
<path d="M113.831 37.7894C111.782 37.7894 109.937 37.3675 108.298 36.5236C106.682 35.6556 105.416 34.4621 104.5 32.943C103.584 31.424 103.126 29.7001 103.126 27.7712C103.126 25.8422 103.584 24.1183 104.5 22.5993C105.416 21.0802 106.682 19.8988 108.298 19.0549C109.937 18.1869 111.782 17.7529 113.831 17.7529C115.881 17.7529 117.713 18.1869 119.329 19.0549C120.944 19.8988 122.21 21.0802 123.126 22.5993C124.042 24.1183 124.501 25.8422 124.501 27.7712C124.501 29.7001 124.042 31.424 123.126 32.943C122.21 34.4621 120.944 35.6556 119.329 36.5236C117.713 37.3675 115.881 37.7894 113.831 37.7894ZM113.831 33.16C115.278 33.16 116.459 32.6778 117.376 31.7134C118.316 30.7248 118.786 29.4107 118.786 27.7712C118.786 26.1316 118.316 24.8296 117.376 23.8651C116.459 22.8765 115.278 22.3823 113.831 22.3823C112.385 22.3823 111.191 22.8765 110.251 23.8651C109.31 24.8296 108.84 26.1316 108.84 27.7712C108.84 29.4107 109.31 30.7248 110.251 31.7134C111.191 32.6778 112.385 33.16 113.831 33.16Z" fill="#F4F4F5"/>
<path d="M126.825 44.8058C124.848 44.8058 123.341 44.4442 122.304 43.7208L123.823 39.6339C124.474 40.0921 125.27 40.3211 126.21 40.3211C126.934 40.3211 127.5 40.08 127.91 39.5978C128.32 39.1397 128.525 38.4404 128.525 37.5001V18.0422H134.167V37.4639C134.167 39.7304 133.516 41.5146 132.214 42.8166C130.936 44.1428 129.14 44.8058 126.825 44.8058ZM131.346 15.3297C130.309 15.3297 129.465 15.0283 128.814 14.4255C128.163 13.8227 127.838 13.0753 127.838 12.1832C127.838 11.291 128.163 10.5436 128.814 9.9408C129.465 9.33801 130.309 9.03662 131.346 9.03662C132.383 9.03662 133.227 9.32596 133.878 9.90463C134.529 10.4833 134.854 11.2066 134.854 12.0747C134.854 13.015 134.529 13.7986 133.878 14.4255C133.227 15.0283 132.383 15.3297 131.346 15.3297Z" fill="#F4F4F5"/>
<path d="M158.422 27.8435C158.422 27.9158 158.386 28.4222 158.314 29.3625H143.594C143.859 30.5681 144.486 31.5205 145.474 32.2197C146.463 32.9189 147.693 33.2685 149.163 33.2685C150.176 33.2685 151.068 33.1239 151.84 32.8345C152.635 32.5211 153.371 32.0389 154.046 31.3879L157.048 34.6429C155.215 36.7406 152.539 37.7894 149.019 37.7894C146.825 37.7894 144.884 37.3675 143.196 36.5236C141.508 35.6556 140.206 34.4621 139.29 32.943C138.374 31.424 137.915 29.7001 137.915 27.7712C137.915 25.8664 138.361 24.1544 139.254 22.6354C140.17 21.0923 141.412 19.8988 142.979 19.0549C144.57 18.1869 146.342 17.7529 148.295 17.7529C150.2 17.7529 151.924 18.1628 153.467 18.9826C155.01 19.8023 156.216 20.9838 157.084 22.5269C157.976 24.0459 158.422 25.8181 158.422 27.8435ZM148.332 22.0206C147.054 22.0206 145.981 22.3823 145.113 23.1056C144.245 23.8289 143.714 24.8175 143.521 26.0713H153.106C152.913 24.8416 152.382 23.8651 151.514 23.1418C150.646 22.3943 149.585 22.0206 148.332 22.0206Z" fill="#F4F4F5"/>
<path d="M171.582 37.7894C169.508 37.7894 167.64 37.3675 165.976 36.5236C164.336 35.6556 163.046 34.4621 162.106 32.943C161.19 31.424 160.732 29.7001 160.732 27.7712C160.732 25.8422 161.19 24.1183 162.106 22.5993C163.046 21.0802 164.336 19.8988 165.976 19.0549C167.64 18.1869 169.508 17.7529 171.582 17.7529C173.631 17.7529 175.416 18.1869 176.935 19.0549C178.478 19.8988 179.599 21.1164 180.298 22.7078L175.922 25.0586C174.909 23.2744 173.45 22.3823 171.546 22.3823C170.075 22.3823 168.857 22.8645 167.893 23.8289C166.928 24.7934 166.446 26.1075 166.446 27.7712C166.446 29.4348 166.928 30.7489 167.893 31.7134C168.857 32.6778 170.075 33.16 171.546 33.16C173.475 33.16 174.933 32.2679 175.922 30.4837L180.298 32.8707C179.599 34.4138 178.478 35.6194 176.935 36.4874C175.416 37.3554 173.631 37.7894 171.582 37.7894Z" fill="#F4F4F5"/>
<path d="M196.379 36.5597C195.825 36.9696 195.137 37.2831 194.318 37.5001C193.522 37.693 192.678 37.7894 191.786 37.7894C189.471 37.7894 187.675 37.1987 186.397 36.0172C185.143 34.8358 184.516 33.0998 184.516 30.8092V22.8163H181.515V18.4762H184.516V13.7383H190.158V18.4762H195.005V22.8163H190.158V30.7369C190.158 31.5566 190.363 32.1956 190.773 32.6537C191.207 33.0877 191.81 33.3047 192.582 33.3047C193.474 33.3047 194.233 33.0636 194.86 32.5814L196.379 36.5597Z" fill="#F4F4F5"/>
<path d="M223.163 12.1832V37.5001H217.304V27.1201H205.803V37.5001H199.944V12.1832H205.803V22.1653H217.304V12.1832H223.163Z" fill="#F4F4F5"/>
<path d="M248.358 18.0422V37.5001H243.005V35.1854C242.258 36.0293 241.366 36.6803 240.329 37.1384C239.292 37.5724 238.171 37.7894 236.965 37.7894C234.41 37.7894 232.384 37.054 230.889 35.5832C229.394 34.1124 228.647 31.9304 228.647 29.037V18.0422H234.289V28.2052C234.289 31.3396 235.603 32.9069 238.231 32.9069C239.581 32.9069 240.666 32.4729 241.486 31.6049C242.306 30.7127 242.716 29.3987 242.716 27.6627V18.0422H248.358Z" fill="#F4F4F5"/>
<path d="M265.086 17.7529C266.894 17.7529 268.534 18.1748 270.005 19.0187C271.5 19.8385 272.669 21.0079 273.513 22.5269C274.357 24.0218 274.779 25.7699 274.779 27.7712C274.779 29.7724 274.357 31.5325 273.513 33.0515C272.669 34.5464 271.5 35.7158 270.005 36.5597C268.534 37.3795 266.894 37.7894 265.086 37.7894C262.41 37.7894 260.372 36.9455 258.974 35.2577V37.5001H253.585V10.6641H259.227V20.1037C260.65 18.5365 262.603 17.7529 265.086 17.7529ZM264.11 33.16C265.556 33.16 266.738 32.6778 267.654 31.7134C268.594 30.7248 269.065 29.4107 269.065 27.7712C269.065 26.1316 268.594 24.8296 267.654 23.8651C266.738 22.8765 265.556 22.3823 264.11 22.3823C262.663 22.3823 261.469 22.8765 260.529 23.8651C259.613 24.8296 259.155 26.1316 259.155 27.7712C259.155 29.4107 259.613 30.7248 260.529 31.7134C261.469 32.6778 262.663 33.16 264.11 33.16Z" fill="#F4F4F5"/>
</svg>
